<svg xmlns="http://www.w3.org/2000/svg" xmlns:xlink="http://www.w3.org/1999/xlink" width="1080" zoomAndPan="magnify" viewBox="0 0 810 809.999993" height="1080" preserveAspectRatio="xMidYMid meet" version="1.2"><defs><filter x="0%" y="0%" width="100%" filterUnits="objectBoundingBox" id="e4d5780a91" height="100%"><feColorMatrix values="0 0 0 0 1 0 0 0 0 1 0 0 0 0 1 0 0 0 1 0" type="matrix" in="SourceGraphic"/></filter><clipPath id="bcd88ced97"><path d="M 0.605469 0.605469 L 281.394531 0.605469 L 281.394531 281.394531 L 0.605469 281.394531 Z M 0.605469 0.605469 "/></clipPath><clipPath id="369e97dff5"><path d="M 141 0.605469 C 63.460938 0.605469 0.605469 63.460938 0.605469 141 C 0.605469 218.539062 63.460938 281.394531 141 281.394531 C 218.539062 281.394531 281.394531 218.539062 281.394531 141 C 281.394531 63.460938 218.539062 0.605469 141 0.605469 Z M 141 0.605469 "/></clipPath><clipPath id="f9d33992f6"><rect x="0" width="282" y="0" height="282"/></clipPath></defs><g id="759b7fd1c3"><g mask="url(#7004f13936)" transform="matrix(1,0,0,1,264,264)"><g clip-path="url(#f9d33992f6)"><g clip-rule="nonzero" clip-path="url(#bcd88ced97)"><g clip-rule="nonzero" clip-path="url(#369e97dff5)"><path style=" stroke:none;fill-rule:nonzero;fill:#ffffff;fill-opacity:1;" d="M 0.605469 0.605469 L 281.394531 0.605469 L 281.394531 281.394531 L 0.605469 281.394531 Z M 0.605469 0.605469 "/></g></g></g><mask id="7004f13936"><g filter="url(#e4d5780a91)"><rect x="0" width="810" y="0" height="809.999993" style="fill:#000000;fill-opacity:0.18;stroke:none;"/></g></mask></g></g></svg>